<?xml version="1.0" encoding="iso-8859-1"?>
<!-- Generator: Adobe Illustrator 19.0.0, SVG Export Plug-In . SVG Version: 6.00 Build 0)  -->
<svg version="1.1" id="Capa_1" xmlns="http://www.w3.org/2000/svg" xmlns:xlink="http://www.w3.org/1999/xlink" x="0px" y="0px"
	 viewBox="0 0 512 512" style="enable-background:new 0 0 512 512;" xml:space="preserve">
<path style="fill:#00D7DF;" d="M504.448,497.102l-55.379-34.906l-55.379,34.906l-55.379-34.906l-55.379,34.906V396.413
	c0-61.169,49.588-110.757,110.757-110.757l0,0c61.169,0,110.757,49.588,110.757,110.757V497.102z"/>
<circle style="fill:#D9CCBC;" cx="348.382" cy="377.279" r="30.206"/>
<circle style="fill:#5D41B8;" cx="348.382" cy="392.382" r="15.103"/>
<circle style="fill:#D9CCBC;" cx="439.001" cy="377.279" r="30.206"/>
<circle style="fill:#5D41B8;" cx="439.001" cy="392.382" r="15.103"/>
<path style="fill:#FDD844;" d="M172.177,169.865l144.319-71.648C290.124,45.199,235.41,8.763,172.177,8.763
	c-88.974,0-161.101,72.127-161.101,161.101c0,88.973,72.127,161.101,161.101,161.101c63.233,0,117.947-36.437,144.319-89.454
	L172.177,169.865z"/>
<path style="fill:#FFFFFF;" d="M73.885,95.435l-12.029-9.132c3.203-4.218,6.69-8.302,10.361-12.137L83.125,84.61
	C79.85,88.03,76.742,91.672,73.885,95.435z M93.537,74.913L83.893,63.29c24.769-20.552,56.122-31.872,88.279-31.872
	c0.002,0,0.002,0,0.004,0v15.103C143.532,46.521,115.603,56.603,93.537,74.913z"/>
<path style="fill:#FDBF44;" d="M172.177,310.828c-85.591,0-155.58-66.75-160.779-151.032c-0.205,3.331-0.322,6.686-0.322,10.069
	c0,88.973,72.127,161.101,161.101,161.101c63.233,0,117.947-36.437,144.319-89.454l-8.958-4.447
	C278.846,281.441,228.953,310.828,172.177,310.828z"/>
<polygon style="fill:#00B2DF;" points="393.691,476.964 338.313,442.058 282.934,476.964 282.934,497.102 338.313,462.196 
	393.691,497.102 449.07,462.196 504.448,497.102 504.448,476.964 449.07,442.058 "/>
<path d="M393.691,278.105c-65.236,0-118.309,53.073-118.309,118.309v114.375l62.93-39.666l55.379,34.906l55.379-34.906L512,510.788
	V396.413C512,331.177,458.927,278.105,393.691,278.105z M496.897,483.415l-47.827-30.146l-55.379,34.906l-55.379-34.906
	l-47.827,30.145v-87.002c0-56.908,46.297-103.206,103.206-103.206s103.206,46.297,103.206,103.206V483.415z"/>
<path d="M348.382,339.525c-20.82,0-37.758,16.938-37.758,37.758c0,20.82,16.938,37.758,37.758,37.758s37.758-16.938,37.758-37.758
	C386.14,356.462,369.202,339.525,348.382,339.525z M340.83,392.386c0-4.164,3.387-7.552,7.552-7.552s7.552,3.387,7.552,7.552
	c0,4.164-3.387,7.552-7.552,7.552S340.83,396.549,340.83,392.386z M369.738,384.834c-3.117-8.789-11.512-15.103-21.356-15.103
	s-18.239,6.314-21.356,15.103c-0.839-2.363-1.299-4.905-1.299-7.552c0-12.491,10.163-22.655,22.655-22.655
	s22.655,10.163,22.655,22.655C371.036,379.93,370.575,382.47,369.738,384.834z"/>
<path d="M439.001,339.525c-20.82,0-37.758,16.938-37.758,37.758c0,20.82,16.938,37.758,37.758,37.758s37.758-16.938,37.758-37.758
	C476.759,356.462,459.821,339.525,439.001,339.525z M431.449,392.386c0-4.164,3.387-7.552,7.552-7.552s7.552,3.387,7.552,7.552
	c0,4.164-3.387,7.552-7.552,7.552S431.449,396.549,431.449,392.386z M460.357,384.834c-3.117-8.789-11.512-15.103-21.356-15.103
	s-18.239,6.314-21.356,15.103c-0.839-2.363-1.299-4.905-1.299-7.552c0-12.491,10.163-22.655,22.655-22.655
	s22.655,10.163,22.655,22.655C461.656,379.93,461.195,382.47,460.357,384.834z"/>
<path d="M323.257,244.875l3.366-6.766L189.16,169.865l137.463-68.245l-3.366-6.766c-13.772-27.686-34.885-51.072-61.061-67.627
	c-26.906-17.019-58.035-26.015-90.018-26.015C79.182,1.212,3.524,76.87,3.524,169.865s75.658,168.653,168.653,168.653
	c31.984,0,63.112-8.996,90.018-26.015C288.37,295.947,309.485,272.562,323.257,244.875z M172.177,323.414
	c-84.668,0-153.55-68.882-153.55-153.55s68.882-153.55,153.55-153.55c56.158,0,106.842,29.918,134.029,78.579l-151.011,74.97
	l151.011,74.971C279.019,293.497,228.335,323.414,172.177,323.414z"/>
<rect x="386.14" y="162.309" width="15.103" height="15.103"/>
<rect x="386.14" y="192.516" width="15.103" height="15.103"/>
<rect x="386.14" y="222.722" width="15.103" height="15.103"/>
<rect x="355.933" y="162.309" width="15.103" height="15.103"/>
<rect x="295.52" y="162.309" width="15.103" height="15.103"/>
<rect x="325.727" y="162.309" width="15.103" height="15.103"/>
<rect x="265.314" y="162.309" width="15.103" height="15.103"/>
<rect y="426.112" width="15.103" height="15.103"/>
<rect x="30.206" y="426.112" width="15.103" height="15.103"/>
<rect x="241.652" y="426.112" width="15.103" height="15.103"/>
<rect x="211.445" y="426.112" width="15.103" height="15.103"/>
<rect x="181.239" y="426.112" width="15.103" height="15.103"/>
<rect x="151.032" y="426.112" width="15.103" height="15.103"/>
<rect x="90.619" y="426.112" width="15.103" height="15.103"/>
<rect x="120.826" y="426.112" width="15.103" height="15.103"/>
<rect x="60.413" y="426.112" width="15.103" height="15.103"/>
<g>
</g>
<g>
</g>
<g>
</g>
<g>
</g>
<g>
</g>
<g>
</g>
<g>
</g>
<g>
</g>
<g>
</g>
<g>
</g>
<g>
</g>
<g>
</g>
<g>
</g>
<g>
</g>
<g>
</g>
</svg>
